<svg xmlns="http://www.w3.org/2000/svg" viewBox="0 0 320 160" role="img" aria-label="La Colonial"><defs><linearGradient id="g" x1="0" y1="0" x2="320" y2="0" gradientUnits="userSpaceOnUse"><stop offset="0%" stop-color="#D4E800"/><stop offset="12%" stop-color="#88CC00"/><stop offset="25%" stop-color="#00BB44"/><stop offset="38%" stop-color="#00BBAA"/><stop offset="50%" stop-color="#00AAFF"/><stop offset="63%" stop-color="#0055EE"/><stop offset="74%" stop-color="#4400CC"/><stop offset="84%" stop-color="#8800AA"/><stop offset="92%" stop-color="#CC0044"/><stop offset="100%" stop-color="#EE0000"/></linearGradient></defs><polygon fill="url(#g)" points="68,9 176,9 176,5 288,5 288,18 176,18 176,13 68,13"/><polygon fill="url(#g)" points="55,28 166,28 166,24 292,24 292,37 166,37 166,32 55,32"/><polygon fill="url(#g)" points="43,47 156,47 156,43 296,43 296,56 156,56 156,51 43,51"/><polygon fill="url(#g)" points="32,66 146,66 146,62 300,62 300,75 146,75 146,70 32,70"/><polygon fill="url(#g)" points="22,85 136,85 136,81 304,81 304,94 136,94 136,89 22,89"/><polygon fill="url(#g)" points="14,104 126,104 126,100 308,100 308,113 126,113 126,108 14,108"/><polygon fill="url(#g)" points="7,123 116,123 116,119 312,119 312,132 116,132 116,127 7,127"/><polygon fill="url(#g)" points="2,142 106,142 106,138 316,138 316,151 106,151 106,146 2,146"/></svg>